<?xml version="1.0" encoding="utf-8"?>
<!-- Generator: Adobe Illustrator 23.0.1, SVG Export Plug-In . SVG Version: 6.00 Build 0)  -->
<svg version="1.1" id="Layer_1" xmlns="http://www.w3.org/2000/svg" xmlns:xlink="http://www.w3.org/1999/xlink" x="0px" y="0px"
	 viewBox="0 0 3786 1000" style="enable-background:new 0 0 3786 1000;" xml:space="preserve">
<style type="text/css">
	.st0{fill:#272A35;}
	.st1{fill-rule:evenodd;clip-rule:evenodd;fill:#EC1C38;}
	.st2{fill:#EC1C38;}
</style>
<path class="st0" d="M975,0H25C11.2,0,0,11.2,0,25v950c0,13.8,11.2,25,25,25h950c13.8,0,25-11.2,25-25V25C1000,11.2,988.8,0,975,0z"
	/>
<path class="st1" d="M415.8,621l-158.3-91.4c-5-2.9-11.1-2.9-16.1,0l-55,31.8c-10.7,6.2-24.2-1.6-24.2-14V389.9
	c0-12.4-13.5-20.2-24.2-13.9l-55,32c-5,2.9-8,8.2-8,13.9v395.9c0,5.8,3.1,11.1,8.1,14l158.3,91.4c5,2.9,11.1,2.9,16.1,0l158.3-91.4
	c5-2.9,8.1-8.2,8.1-14V635C423.9,629.2,420.8,623.9,415.8,621z M336.7,767.4c0,5.8-3.1,11.1-8.1,14l-71.1,41.1
	c-5,2.9-11.1,2.9-16.1,0l-71.1-41.1c-5-2.9-8.1-8.2-8.1-14v-82.1c0-5.8,3.1-11.1,8.1-14l71.1-41.1c5-2.9,11.1-2.9,16.1,0l71.1,41.1
	c5,2.9,8.1,8.2,8.1,14L336.7,767.4z M802.3,621L644,529.6c-5-2.9-11.1-2.9-16.1,0l-55,31.8c-10.7,6.2-24.2-1.6-24.2-14V389.9
	c0-12.4-13.5-20.2-24.2-13.9l-55,32c-5,2.9-8,8.2-8,13.9v395.9c0,5.8,3.1,11.1,8.1,14l158.3,91.4c5,2.9,11.1,2.9,16.1,0l158.3-91.4
	c5-2.9,8.1-8.2,8.1-14V635C810.4,629.2,807.3,623.9,802.3,621z M723.2,767.4c0,5.8-3.1,11.1-8.1,14L644,822.5
	c-5,2.9-11.1,2.9-16.1,0l-71.1-41.1c-5-2.9-8.1-8.2-8.1-14v-82.1c0-5.8,3.1-11.1,8.1-14l71.1-41.1c5-2.9,11.1-2.9,16.1,0l71.1,41.1
	c5,2.9,8.1,8.2,8.1,14L723.2,767.4z M915.7,838.1H847c-5.1,0-9.3,4.1-9.3,9.3v68.7c0,5.1,4.1,9.3,9.3,9.3h68.7
	c5.1,0,9.3-4.1,9.3-9.3v-68.7C925,842.3,920.9,838.1,915.7,838.1z"/>
<g>
	<g>
		<path class="st2" d="M1234.1,376c10.2,0,19.7,1.1,28.4,3.1c8.7,2.1,16.2,5.6,22.5,10.5s11.1,11.4,14.7,19.5
			c3.5,8.1,5.2,18.1,5.2,30c0,13.5-3.1,25.1-9.4,34.7c-6.3,9.7-15.7,16.2-28.3,19.7v0.7c14,1.9,25,7.8,33.2,17.8
			c8.1,10,12.2,23.4,12.2,40.1c0,9.8-1.3,19.1-3.8,27.9c-2.6,8.9-6.9,16.6-13.1,23.2c-6.2,6.6-14.2,11.9-24.1,15.9
			c-9.9,4-22.1,5.9-36.8,5.9h-64.5c-11.2,0-20.3-9.1-20.3-20.3V396.2c0-11.2,9.1-20.3,20.3-20.3H1234.1z M1214.5,478.2
			c14,0,24.1-2.5,30.5-7.5c6.4-5,9.6-13.4,9.6-25.3c0-11.9-2.9-20.2-8.7-25.1c-5.8-4.9-15-7.3-27.6-7.3h-18.1v65.2H1214.5z
			 M1219.8,588.1c12.1,0,21.9-2.7,29.3-8c7.4-5.3,11.1-15.2,11.1-29.6c0-7.2-1-13.2-3-18c-2-4.8-4.7-8.6-8-11.5
			c-3.4-2.9-7.4-4.9-12-6.1c-4.7-1.1-9.8-1.7-15.4-1.7h-21.6v75H1219.8z"/>
		<path class="st2" d="M1347.4,448.4c1.8-15.9,5.6-29.6,11.5-41c5.9-11.4,14.5-20.3,25.6-26.7c11.1-6.4,26.2-9.6,45-9.6
			c18.8,0,33.8,3.2,45,9.6c11.2,6.4,19.7,15.3,25.6,26.7c6,11.4,9.8,25.1,11.5,41c1.8,15.9,2.6,33.3,2.6,52.1
			c0,19.1-0.9,36.5-2.6,52.3c-1.8,15.8-5.6,29.4-11.5,40.8c-5.9,11.4-14.5,20.1-25.6,26.2c-11.1,6.1-26.2,9.1-45,9.1
			c-18.9,0-33.9-3-45-9.1c-11.2-6-19.7-14.8-25.6-26.2c-5.9-11.4-9.8-25-11.5-40.8c-1.7-15.8-2.6-33.3-2.6-52.3
			C1344.8,481.7,1345.7,464.3,1347.4,448.4z M1396.3,543.2c0.8,11.7,2.4,21.3,4.9,28.6c2.5,7.3,5.9,12.7,10.5,16
			c4.5,3.4,10.5,5.1,18,5.1c7.4,0,13.4-1.7,18-5.1c4.5-3.4,8-8.7,10.4-16c2.5-7.3,4.1-16.9,4.9-28.6c0.8-11.8,1.2-26,1.2-42.7
			c0-16.7-0.4-30.9-1.2-42.6c-0.8-11.6-2.5-21.2-4.9-28.6c-2.4-7.4-5.9-12.9-10.4-16.2c-4.6-3.4-10.5-5.1-18-5.1
			c-7.5,0-13.4,1.7-18,5.1c-4.6,3.4-8,8.8-10.5,16.2c-2.5,7.5-4.1,17-4.9,28.6c-0.8,11.6-1.2,25.8-1.2,42.6
			C1395,517.3,1395.4,531.5,1396.3,543.2z"/>
		<path class="st2" d="M1593.2,376c8.3,0,15.8,5.1,18.8,12.8l27,67.8l26.7-67.8c3.1-7.7,10.5-12.8,18.9-12.8h41l-53.8,114.3
			c-2.6,5.6-2.6,12.1,0.2,17.6l57.8,117.2h-43.1c-8.1,0-15.5-4.9-18.7-12.3l-30.7-72.1l-30.4,72c-3.2,7.5-10.5,12.4-18.7,12.4h-41.7
			l57.8-117.2c2.7-5.5,2.8-11.9,0.2-17.5L1551.4,376H1593.2z"/>
		<path class="st2" d="M1846,376c10.2,0,19.7,1.1,28.4,3.1c8.7,2.1,16.2,5.6,22.5,10.5c6.3,4.9,11.1,11.4,14.7,19.5
			c3.5,8.1,5.2,18.1,5.2,30c0,13.5-3.1,25.1-9.4,34.7c-6.3,9.7-15.7,16.2-28.3,19.7v0.7c14,1.9,25,7.8,33.2,17.8
			c8.1,10,12.2,23.4,12.2,40.1c0,9.8-1.3,19.1-3.8,27.9c-2.6,8.9-6.9,16.6-13.1,23.2c-6.2,6.6-14.2,11.9-24.1,15.9
			c-9.9,4-22.1,5.9-36.8,5.9h-64.5c-11.2,0-20.3-9.1-20.3-20.3V396.2c0-11.2,9.1-20.3,20.3-20.3H1846z M1826.5,478.2
			c14,0,24.1-2.5,30.5-7.5c6.4-5,9.6-13.4,9.6-25.3c0-11.9-2.9-20.2-8.7-25.1c-5.8-4.9-15-7.3-27.6-7.3h-18.1v65.2H1826.5z
			 M1831.7,588.1c12.1,0,21.9-2.7,29.3-8c7.4-5.3,11.1-15.2,11.1-29.6c0-7.2-1-13.2-3-18c-2-4.8-4.7-8.6-8-11.5s-7.4-4.9-12-6.1
			c-4.7-1.1-9.8-1.7-15.4-1.7h-21.6v75H1831.7z"/>
		<path class="st2" d="M2049.5,376c20.9,0,37.2,5.3,48.8,15.9c11.6,10.6,17.5,26.7,17.5,48.3c0,16.7-3.4,30.4-10.1,41
			c-6.8,10.6-17.2,17.4-31.4,20.4v0.7c12.6,1.9,21.8,5.9,27.6,12.2c5.8,6.3,9.4,16.4,10.8,30.3c0.5,4.7,0.8,9.7,1.1,15.2
			c0.2,5.5,0.4,11.6,0.7,18.3c0.4,13.3,1.1,23.4,2.1,30.4c1.4,7,4.4,11.7,9,14.3v2.1h-54.4c-2.6-3.5-4.2-7.5-4.9-12
			c-0.7-4.5-1.1-9.2-1.4-14.1l-1.4-47.8c-0.5-9.8-2.9-17.4-7.3-23c-4.4-5.6-11.9-8.4-22.3-8.4h-26.9V625h-50.2V396.2
			c0-11.2,9.1-20.3,20.3-20.3H2049.5z M2027.9,484.8c12.1,0,21.4-2.9,27.9-8.6c6.5-5.7,9.8-15.3,9.8-28.8c0-23-11.7-34.5-34.9-34.5
			h-23.7v71.9H2027.9z"/>
		<path class="st2" d="M2160.4,448.4c1.8-15.9,5.6-29.6,11.5-41c5.9-11.4,14.5-20.3,25.6-26.7c11.1-6.4,26.2-9.6,45-9.6
			c18.8,0,33.8,3.2,45,9.6c11.2,6.4,19.7,15.3,25.6,26.7c6,11.4,9.8,25.1,11.5,41c1.8,15.9,2.6,33.3,2.6,52.1
			c0,19.1-0.9,36.5-2.6,52.3c-1.8,15.8-5.6,29.4-11.5,40.8c-5.9,11.4-14.5,20.1-25.6,26.2c-11.1,6.1-26.2,9.1-45,9.1
			c-18.9,0-33.9-3-45-9.1c-11.2-6-19.7-14.8-25.6-26.2c-5.9-11.4-9.8-25-11.5-40.8c-1.7-15.8-2.6-33.3-2.6-52.3
			C2157.8,481.7,2158.7,464.3,2160.4,448.4z M2209.2,543.2c0.8,11.7,2.4,21.3,4.9,28.6c2.5,7.3,5.9,12.7,10.5,16
			c4.5,3.4,10.5,5.1,18,5.1c7.4,0,13.4-1.7,18-5.1c4.5-3.4,8-8.7,10.4-16c2.5-7.3,4.1-16.9,4.9-28.6c0.8-11.8,1.2-26,1.2-42.7
			c0-16.7-0.4-30.9-1.2-42.6c-0.8-11.6-2.5-21.2-4.9-28.6c-2.4-7.4-5.9-12.9-10.4-16.2c-4.6-3.4-10.5-5.1-18-5.1
			c-7.5,0-13.4,1.7-18,5.1c-4.6,3.4-8,8.8-10.5,16.2c-2.5,7.5-4.1,17-4.9,28.6c-0.8,11.6-1.2,25.8-1.2,42.6
			C2208,517.3,2208.4,531.5,2209.2,543.2z"/>
		<path class="st2" d="M2393.8,376l27.6,184.2h0.7l29.3-184.2h48.1l29.3,184.2h0.7l27.6-184.2h48.2l-42.3,232.5
			c-1.8,9.6-10.1,16.6-19.9,16.6h-21.9c-10,0-18.5-7.3-20-17.2l-25.3-163.5h-0.7l-25.3,163.5c-1.5,9.9-10,17.2-20,17.2h-21.9
			c-9.8,0-18.2-7-19.9-16.6L2345.7,376H2393.8z"/>
		<path class="st2" d="M2756.1,546.6h0.7V376h46.1V625H2760c-8.6,0-16.3-5.4-19.1-13.5l-56.6-160.9h-0.7V625h-46V396.2
			c0-11.2,9.1-20.3,20.3-20.3h23.3c8.6,0,16.2,5.4,19.1,13.5L2756.1,546.6z"/>
		<path class="st2" d="M2835.1,376h50.2V625h-50.2V376z"/>
		<path class="st2" d="M3056.7,417.1H2988c-11.2,0-20.3,9.1-20.3,20.3v18.1c0,11.2,9.1,20.3,20.3,20.3h63.4v41.2H2988
			c-11.2,0-20.3,9.1-20.3,20.3v26.4c0,11.2,9.1,20.3,20.3,20.3h68.7V625h-118.9c-11.2,0-20.3-9.1-20.3-20.3V396.2
			c0-11.2,9.1-20.3,20.3-20.3h118.9V417.1z"/>
		<circle class="st2" cx="3106.2" cy="604.5" r="20.6"/>
	</g>
	<path class="st2" d="M3253.5,419.8c-4.3-8.3-12.3-12.5-23.7-12.5c-6.3,0-11.5,1.7-15.6,5.1s-7.3,8.9-9.7,16.5
		c-2.3,7.6-4,17.6-4.9,29.9s-1.4,27.4-1.4,45.2c0,19,0.6,34.4,1.9,46.1c1.3,11.7,3.3,20.8,6,27.3c2.7,6.5,6.1,10.8,10.2,13
		c4.1,2.2,8.9,3.3,14.3,3.3c4.5,0,8.6-0.8,12.5-2.3c3.9-1.5,7.2-4.6,10-9.1c2.8-4.6,5-11,6.7-19.3c1.6-8.3,2.5-19.3,2.5-32.9h50.7
		c0,13.6-1,26.5-3.2,38.7c-2.1,12.2-6,22.9-11.8,32c-5.8,9.1-13.8,16.3-24.3,21.5c-10.4,5.1-24,7.7-40.6,7.7c-19,0-34.1-3-45.4-9.1
		c-11.2-6.1-19.9-14.9-25.9-26.4c-6-11.5-9.8-25.2-11.6-41.2c-1.8-16-2.7-33.5-2.7-52.8c0-19,0.9-36.5,2.7-52.6
		c1.8-16.1,5.6-29.8,11.6-41.3c6-11.5,14.6-20.5,25.9-26.9c11.3-6.5,26.4-9.7,45.4-9.7c18.1,0,32.3,2.9,42.7,8.8
		c10.5,5.9,18.2,13.3,23.4,22.3c5.1,9,8.4,18.8,9.7,29.2c1.3,10.4,1.9,20.2,1.9,29.4H3260C3260,441.4,3257.9,428.1,3253.5,419.8z"/>
	<path class="st2" d="M3354.8,447.9c1.8-16.1,5.6-29.8,11.6-41.3c6-11.5,14.6-20.5,25.9-26.9c11.3-6.5,26.4-9.7,45.4-9.7
		s34.1,3.2,45.4,9.7c11.2,6.5,19.9,15.4,25.9,26.9c6,11.5,9.8,25.3,11.6,41.3c1.8,16.1,2.7,33.6,2.7,52.6c0,19.2-0.9,36.8-2.7,52.8
		c-1.8,16-5.6,29.7-11.6,41.2c-6,11.5-14.6,20.3-25.9,26.4c-11.3,6.1-26.4,9.1-45.4,9.1s-34.1-3-45.4-9.1
		c-11.2-6.1-19.9-14.9-25.9-26.4c-6-11.5-9.8-25.2-11.6-41.2c-1.8-16-2.7-33.5-2.7-52.8C3352.2,481.5,3353.1,464,3354.8,447.9z
		 M3404.1,543.6c0.8,11.8,2.5,21.5,4.9,28.9c2.5,7.4,6,12.8,10.6,16.2c4.6,3.4,10.6,5.1,18.1,5.1s13.5-1.7,18.1-5.1
		c4.6-3.4,8.1-8.8,10.6-16.2c2.5-7.4,4.1-17,4.9-28.9c0.8-11.8,1.2-26.2,1.2-43.1s-0.4-31.2-1.2-42.9c-0.8-11.7-2.5-21.3-4.9-28.8
		c-2.5-7.5-6-13-10.6-16.4s-10.6-5.1-18.1-5.1s-13.5,1.7-18.1,5.1c-4.6,3.4-8.1,8.8-10.6,16.4c-2.5,7.5-4.1,17.1-4.9,28.8
		c-0.8,11.7-1.2,26-1.2,42.9S3403.3,531.8,3404.1,543.6z"/>
	<g>
		<path class="st2" d="M3615.3,374.9c13.3,0,24.8,9.4,27.5,22.5l31.3,154.6c0,0.1,0.2,0.2,0.3,0.2h0.2c0.1,0,0.3-0.1,0.3-0.2
			l31.6-154.7c2.7-13,14.1-22.4,27.4-22.4h51.8c0.1,0,0.2,0.1,0.2,0.2v250.7c0,0.1-0.1,0.2-0.2,0.2h-46c-0.1,0-0.2-0.1-0.2-0.2v-200
			c0-0.1-0.1-0.2-0.2-0.2h-0.2c-0.1,0-0.3,0.1-0.3,0.2l-44.6,200.1c0,0.1-0.2,0.2-0.3,0.2H3655c-0.1,0-0.3-0.1-0.3-0.2l-44.6-200.1
			c0-0.1-0.2-0.2-0.3-0.2h-0.2c-0.1,0-0.2,0.1-0.2,0.2v200c0,0.1-0.1,0.2-0.2,0.2h-45.9c-0.1,0-0.2-0.1-0.2-0.2V375.2
			c0-0.1,0.1-0.2,0.2-0.2H3615.3z"/>
	</g>
</g>
</svg>
